# xmcd
#
# Track frame offsets:
#	150
#	14763
#	30978
#	44596
#	57492
#	72374
#	85044
#	100695
#	114981
#	133857
#	151647
#	162701
#	175845
#	187522
#	200056
#	213646
#	226689
#	241219
#	256661
#	273514
#	292906
#	304677
#	325758
#	340267
#
# Disc length: 4674 seconds
#
# Revision: 0
# Processed by: cddbd v1.5.2PL0 Copyright (c) Steve Scherf et al.
# Submitted via: EasyCDDAExtractor 12.0.2.1
#
DISCID=49124018
DTITLE=Various Artist - Blackpool mecca's Highland room
DYEAR=1900
DGENRE=Soul
TTITLE0=James fountain - Seven day lover
TTITLE1=Carstairs - It really hurts me girl
TTITLE2=Life - Tell me why
TTITLE3=Nolan porter - Oh baby
TTITLE4=Lou edwards and todays people - Talkin bout poor folk
TTITLE5=Montclairs - Hung up on your love
TTITLE6=Sister sledge - Love dont go thru no changes on me
TTITLE7=Crystal motion - Youre my main squeeze
TTITLE8=Skull snaps - Im your pimp
TTITLE9=Oscar perry - I got what you need
TTITLE10=Mel britt - She'll come running back
TTITLE11=Fantastic puzzles - Come back
TTITLE12=Billy woods - Let me make you happy
TTITLE13=Prince george - Wrong crowd
TTITLE14=Charles mann - Its all over
TTITLE15=World column - So is the sun
TTITLE16=Magic night - If you and i had never met
TTITLE17=Bobby hutton - Lend a hand
TTITLE18=Kenny smith - Lord whats happening
TTITLE19=The Brothers - Are you ready for this
TTITLE20=Pete warner - I just want to spend my life with you
TTITLE21=Hosanna - Hip it
TTITLE22=Marvin holmes and Justice - You better keep her
TTITLE23=Voices of east harlem - Cashing in
EXTD=
EXTT0=
EXTT1=
EXTT2=
EXTT3=
EXTT4=
EXTT5=
EXTT6=
EXTT7=
EXTT8=
EXTT9=
EXTT10=
EXTT11=
EXTT12=
EXTT13=
EXTT14=
EXTT15=
EXTT16=
EXTT17=
EXTT18=
EXTT19=
EXTT20=
EXTT21=
EXTT22=
EXTT23=
PLAYORDER=
